<svg id="Layer_1" data-name="Layer 1" xmlns="http://www.w3.org/2000/svg" viewBox="0 0 32 32"><defs><style>.cls-1{fill:none;}.cls-2{fill:#374966;}</style></defs><rect class="cls-1" x="4" y="4" width="24" height="24"/><path class="cls-2" d="M14.29,20.29a1.27,1.27,0,0,1-.92-.38L9.64,16.19a1.31,1.31,0,0,1,1.85-1.85l2.81,2.81L25.78,5.9a1.3,1.3,0,1,1,1.83,1.86L15.2,19.92A1.28,1.28,0,0,1,14.29,20.29Z"/><path class="cls-2" d="M20.82,26.48H7.55A3.56,3.56,0,0,1,4,22.92V9.65A3.55,3.55,0,0,1,7.55,6.1H17a1.31,1.31,0,1,1,0,2.61H7.55a.94.94,0,0,0-.94.94V22.92a1,1,0,0,0,.94.95H20.82a1,1,0,0,0,.95-.95V18.77a1.31,1.31,0,1,1,2.61,0v4.15A3.57,3.57,0,0,1,20.82,26.48Z"/></svg>